<mxfile host="Electron" agent="Mozilla/5.0 (Windows NT 10.0; Win64; x64) AppleWebKit/537.36 (KHTML, like Gecko) draw.io/26.0.16 Chrome/132.0.6834.196 Electron/34.2.0 Safari/537.36" version="26.0.16">
  <diagram name="Page-1" id="KjLprj9p4xoS-JRIfPpS">
    <mxGraphModel dx="2284" dy="884" grid="1" gridSize="10" guides="1" tooltips="1" connect="1" arrows="1" fold="1" page="1" pageScale="1" pageWidth="850" pageHeight="1100" math="0" shadow="0">
      <root>
        <mxCell id="0" />
        <mxCell id="1" parent="0" />
        <mxCell id="iYd_dcTMY8yAVxDXRBEc-1" value="&lt;font style=&quot;&quot;&gt;&lt;b&gt;Data Flow Warehouse&amp;nbsp;&lt;/b&gt;&lt;font style=&quot;font-size: 20px;&quot;&gt;(data Lineage)&lt;/font&gt;&lt;br style=&quot;font-size: 38px;&quot;&gt;&lt;/font&gt;" style="text;html=1;strokeColor=none;fillColor=none;align=left;verticalAlign=middle;whiteSpace=wrap;rounded=0;fontSize=38;fontFamily=Helvetica;" vertex="1" parent="1">
          <mxGeometry x="-360" y="910" width="570" height="54" as="geometry" />
        </mxCell>
        <mxCell id="iYd_dcTMY8yAVxDXRBEc-2" value="&lt;font style=&quot;font-size: 24px;&quot;&gt;Sources&lt;/font&gt;" style="rounded=1;whiteSpace=wrap;html=1;strokeColor=none;" vertex="1" parent="1">
          <mxGeometry x="-320" y="1070" width="120" height="40" as="geometry" />
        </mxCell>
        <mxCell id="iYd_dcTMY8yAVxDXRBEc-3" style="edgeStyle=orthogonalEdgeStyle;rounded=0;orthogonalLoop=1;jettySize=auto;html=1;strokeWidth=1;shadow=1;" edge="1" parent="1" source="iYd_dcTMY8yAVxDXRBEc-4">
          <mxGeometry relative="1" as="geometry">
            <mxPoint x="20" y="1321" as="targetPoint" />
            <Array as="points">
              <mxPoint x="-110" y="1252" />
              <mxPoint x="-110" y="1321" />
            </Array>
          </mxGeometry>
        </mxCell>
        <mxCell id="iYd_dcTMY8yAVxDXRBEc-4" value="&lt;h3&gt;&lt;font style=&quot;font-size: 20px;&quot;&gt;&lt;b&gt;CORE OPERATIONS&lt;/b&gt;&lt;/font&gt;&lt;/h3&gt;" style="image;aspect=fixed;html=1;points=[];align=center;fontSize=12;image=img/lib/azure2/general/Folder_Blank.svg;" vertex="1" parent="1">
          <mxGeometry x="-299.5" y="1224" width="69" height="56.00000000000001" as="geometry" />
        </mxCell>
        <mxCell id="iYd_dcTMY8yAVxDXRBEc-5" style="edgeStyle=orthogonalEdgeStyle;rounded=0;orthogonalLoop=1;jettySize=auto;html=1;entryX=0;entryY=0.5;entryDx=0;entryDy=0;shadow=1;" edge="1" parent="1" source="iYd_dcTMY8yAVxDXRBEc-7" target="iYd_dcTMY8yAVxDXRBEc-18">
          <mxGeometry relative="1" as="geometry" />
        </mxCell>
        <mxCell id="iYd_dcTMY8yAVxDXRBEc-6" style="edgeStyle=orthogonalEdgeStyle;rounded=0;orthogonalLoop=1;jettySize=auto;html=1;shadow=1;" edge="1" parent="1" source="iYd_dcTMY8yAVxDXRBEc-7">
          <mxGeometry relative="1" as="geometry">
            <mxPoint x="20" y="1454" as="targetPoint" />
          </mxGeometry>
        </mxCell>
        <mxCell id="iYd_dcTMY8yAVxDXRBEc-7" value="&lt;h3&gt;&lt;font style=&quot;font-size: 20px;&quot;&gt;&lt;b&gt;PERFOMANCE TRACKING&lt;/b&gt;&lt;/font&gt;&lt;/h3&gt;" style="image;aspect=fixed;html=1;points=[];align=center;fontSize=12;image=img/lib/azure2/general/Folder_Blank.svg;" vertex="1" parent="1">
          <mxGeometry x="-294.5" y="1426" width="69" height="56.00000000000001" as="geometry" />
        </mxCell>
        <mxCell id="iYd_dcTMY8yAVxDXRBEc-8" value="Bronze Layer" style="rounded=1;whiteSpace=wrap;html=1;fillColor=#fff2cc;strokeColor=#d6b656;fontSize=20;fontStyle=1;gradientColor=#CD7F32;" vertex="1" parent="1">
          <mxGeometry x="9" y="1080" width="220" height="50" as="geometry" />
        </mxCell>
        <mxCell id="iYd_dcTMY8yAVxDXRBEc-9" style="edgeStyle=orthogonalEdgeStyle;rounded=0;orthogonalLoop=1;jettySize=auto;html=1;entryX=0;entryY=0.5;entryDx=0;entryDy=0;shadow=1;" edge="1" parent="1">
          <mxGeometry relative="1" as="geometry">
            <mxPoint x="210" y="1189.5" as="sourcePoint" />
            <mxPoint x="330" y="1189.5" as="targetPoint" />
          </mxGeometry>
        </mxCell>
        <mxCell id="iYd_dcTMY8yAVxDXRBEc-10" style="edgeStyle=orthogonalEdgeStyle;rounded=0;orthogonalLoop=1;jettySize=auto;html=1;shadow=1;" edge="1" parent="1" source="iYd_dcTMY8yAVxDXRBEc-11">
          <mxGeometry relative="1" as="geometry">
            <mxPoint x="330" y="1260" as="targetPoint" />
          </mxGeometry>
        </mxCell>
        <mxCell id="iYd_dcTMY8yAVxDXRBEc-11" value="Athletes" style="rounded=1;whiteSpace=wrap;html=1;fillColor=#fff2cc;strokeColor=#d6b656;fontSize=16;fontStyle=0;gradientColor=#CD7F32;" vertex="1" parent="1">
          <mxGeometry x="30" y="1240" width="180" height="40" as="geometry" />
        </mxCell>
        <mxCell id="iYd_dcTMY8yAVxDXRBEc-12" style="edgeStyle=orthogonalEdgeStyle;rounded=0;orthogonalLoop=1;jettySize=auto;html=1;entryX=0;entryY=0.5;entryDx=0;entryDy=0;shadow=1;" edge="1" parent="1" source="iYd_dcTMY8yAVxDXRBEc-13">
          <mxGeometry relative="1" as="geometry">
            <mxPoint x="330" y="1320" as="targetPoint" />
          </mxGeometry>
        </mxCell>
        <mxCell id="iYd_dcTMY8yAVxDXRBEc-13" value="Teams" style="rounded=1;whiteSpace=wrap;html=1;fillColor=#fff2cc;strokeColor=#d6b656;fontSize=16;fontStyle=0;gradientColor=#CD7F32;" vertex="1" parent="1">
          <mxGeometry x="30" y="1300" width="180" height="40" as="geometry" />
        </mxCell>
        <mxCell id="iYd_dcTMY8yAVxDXRBEc-14" value="Coaches" style="rounded=1;whiteSpace=wrap;html=1;fillColor=#fff2cc;strokeColor=#d6b656;fontSize=16;fontStyle=0;gradientColor=#CD7F32;" vertex="1" parent="1">
          <mxGeometry x="30" y="1170" width="180" height="40" as="geometry" />
        </mxCell>
        <mxCell id="iYd_dcTMY8yAVxDXRBEc-15" style="edgeStyle=orthogonalEdgeStyle;rounded=0;orthogonalLoop=1;jettySize=auto;html=1;entryX=0;entryY=0.5;entryDx=0;entryDy=0;shadow=1;" edge="1" parent="1" source="iYd_dcTMY8yAVxDXRBEc-16">
          <mxGeometry relative="1" as="geometry">
            <mxPoint x="330" y="1454" as="targetPoint" />
          </mxGeometry>
        </mxCell>
        <mxCell id="iYd_dcTMY8yAVxDXRBEc-16" value="Medals" style="rounded=1;whiteSpace=wrap;html=1;fillColor=#fff2cc;strokeColor=#d6b656;fontSize=16;fontStyle=0;gradientColor=#CD7F32;" vertex="1" parent="1">
          <mxGeometry x="29" y="1434" width="180" height="40" as="geometry" />
        </mxCell>
        <mxCell id="iYd_dcTMY8yAVxDXRBEc-17" style="edgeStyle=orthogonalEdgeStyle;rounded=0;orthogonalLoop=1;jettySize=auto;html=1;entryX=0;entryY=0.5;entryDx=0;entryDy=0;shadow=1;" edge="1" parent="1" source="iYd_dcTMY8yAVxDXRBEc-18">
          <mxGeometry relative="1" as="geometry">
            <mxPoint x="330" y="1514" as="targetPoint" />
          </mxGeometry>
        </mxCell>
        <mxCell id="iYd_dcTMY8yAVxDXRBEc-18" value="Gender" style="rounded=1;whiteSpace=wrap;html=1;fillColor=#fff2cc;strokeColor=#d6b656;fontSize=16;fontStyle=0;gradientColor=#CD7F32;" vertex="1" parent="1">
          <mxGeometry x="30" y="1494" width="180" height="40" as="geometry" />
        </mxCell>
        <mxCell id="iYd_dcTMY8yAVxDXRBEc-19" value="Gold Layer" style="rounded=1;whiteSpace=wrap;html=1;fillColor=#FFD700;strokeColor=#d6b656;fontSize=20;fontStyle=1;" vertex="1" parent="1">
          <mxGeometry x="606" y="1080" width="220" height="50" as="geometry" />
        </mxCell>
        <mxCell id="iYd_dcTMY8yAVxDXRBEc-20" value="fact_sales" style="rounded=1;whiteSpace=wrap;html=1;fillColor=#FFD700;strokeColor=#d6b656;fontSize=16;fontStyle=0;" vertex="1" parent="1">
          <mxGeometry x="619" y="1198" width="180" height="40" as="geometry" />
        </mxCell>
        <mxCell id="iYd_dcTMY8yAVxDXRBEc-21" value="dim_customers" style="rounded=1;whiteSpace=wrap;html=1;fillColor=#FFD700;strokeColor=#d6b656;fontSize=16;fontStyle=0;" vertex="1" parent="1">
          <mxGeometry x="619" y="1326" width="180" height="40" as="geometry" />
        </mxCell>
        <mxCell id="iYd_dcTMY8yAVxDXRBEc-22" value="dim_products" style="rounded=1;whiteSpace=wrap;html=1;fillColor=#FFD700;strokeColor=#d6b656;fontSize=16;fontStyle=0;" vertex="1" parent="1">
          <mxGeometry x="619" y="1420" width="180" height="40" as="geometry" />
        </mxCell>
        <mxCell id="iYd_dcTMY8yAVxDXRBEc-23" value="" style="endArrow=classic;html=1;rounded=0;exitX=1;exitY=0.75;exitDx=0;exitDy=0;entryX=0;entryY=0.5;entryDx=0;entryDy=0;shadow=1;" edge="1" parent="1" target="iYd_dcTMY8yAVxDXRBEc-20">
          <mxGeometry width="50" height="50" relative="1" as="geometry">
            <mxPoint x="510" y="1216" as="sourcePoint" />
            <mxPoint x="589" y="1260" as="targetPoint" />
          </mxGeometry>
        </mxCell>
        <mxCell id="iYd_dcTMY8yAVxDXRBEc-24" value="" style="endArrow=classic;html=1;rounded=0;exitX=1;exitY=0.5;exitDx=0;exitDy=0;entryX=0;entryY=0.5;entryDx=0;entryDy=0;jumpStyle=gap;" edge="1" parent="1" target="iYd_dcTMY8yAVxDXRBEc-21">
          <mxGeometry width="50" height="50" relative="1" as="geometry">
            <mxPoint x="510" y="1260" as="sourcePoint" />
            <mxPoint x="639" y="1230" as="targetPoint" />
          </mxGeometry>
        </mxCell>
        <mxCell id="iYd_dcTMY8yAVxDXRBEc-25" value="" style="endArrow=classic;html=1;rounded=0;exitX=1;exitY=0.5;exitDx=0;exitDy=0;entryX=0;entryY=0.5;entryDx=0;entryDy=0;jumpStyle=gap;" edge="1" parent="1" target="iYd_dcTMY8yAVxDXRBEc-21">
          <mxGeometry width="50" height="50" relative="1" as="geometry">
            <mxPoint x="510" y="1400" as="sourcePoint" />
            <mxPoint x="629" y="1356" as="targetPoint" />
          </mxGeometry>
        </mxCell>
        <mxCell id="iYd_dcTMY8yAVxDXRBEc-26" value="" style="endArrow=classic;html=1;rounded=0;exitX=1;exitY=0.5;exitDx=0;exitDy=0;entryX=0;entryY=0.5;entryDx=0;entryDy=0;jumpStyle=gap;" edge="1" parent="1" target="iYd_dcTMY8yAVxDXRBEc-21">
          <mxGeometry width="50" height="50" relative="1" as="geometry">
            <mxPoint x="510" y="1454" as="sourcePoint" />
            <mxPoint x="629" y="1356" as="targetPoint" />
          </mxGeometry>
        </mxCell>
        <mxCell id="iYd_dcTMY8yAVxDXRBEc-27" value="" style="endArrow=classic;html=1;rounded=0;exitX=1;exitY=0.5;exitDx=0;exitDy=0;entryX=0;entryY=0.5;entryDx=0;entryDy=0;jumpStyle=gap;" edge="1" parent="1" target="iYd_dcTMY8yAVxDXRBEc-22">
          <mxGeometry width="50" height="50" relative="1" as="geometry">
            <mxPoint x="510" y="1320" as="sourcePoint" />
            <mxPoint x="629" y="1356" as="targetPoint" />
          </mxGeometry>
        </mxCell>
        <mxCell id="iYd_dcTMY8yAVxDXRBEc-28" value="" style="endArrow=classic;html=1;rounded=0;exitX=1;exitY=0.5;exitDx=0;exitDy=0;entryX=0;entryY=0.5;entryDx=0;entryDy=0;jumpStyle=gap;" edge="1" parent="1" target="iYd_dcTMY8yAVxDXRBEc-22">
          <mxGeometry width="50" height="50" relative="1" as="geometry">
            <mxPoint x="510" y="1514" as="sourcePoint" />
            <mxPoint x="629" y="1450" as="targetPoint" />
          </mxGeometry>
        </mxCell>
        <mxCell id="iYd_dcTMY8yAVxDXRBEc-29" value="" style="image;aspect=fixed;html=1;points=[];align=center;fontSize=12;image=img/lib/azure2/general/File.svg;" vertex="1" parent="1">
          <mxGeometry x="-257.96" y="1250" width="32.46" height="40" as="geometry" />
        </mxCell>
        <mxCell id="iYd_dcTMY8yAVxDXRBEc-30" value="" style="image;aspect=fixed;html=1;points=[];align=center;fontSize=12;image=img/lib/azure2/general/File.svg;" vertex="1" parent="1">
          <mxGeometry x="-250" y="1454" width="32.46" height="40" as="geometry" />
        </mxCell>
        <mxCell id="iYd_dcTMY8yAVxDXRBEc-31" value="Silver Layer" style="rounded=1;whiteSpace=wrap;html=1;fillColor=#333333;strokeColor=none;fontSize=20;fontStyle=1;gradientColor=#808080;fontColor=#FFFFFF;" vertex="1" parent="1">
          <mxGeometry x="310" y="1080" width="220" height="50" as="geometry" />
        </mxCell>
        <mxCell id="iYd_dcTMY8yAVxDXRBEc-32" value="Athletes" style="rounded=1;whiteSpace=wrap;html=1;fillColor=#333333;strokeColor=none;fontSize=16;fontStyle=0;gradientColor=#808080;fontColor=#FFFFFF;" vertex="1" parent="1">
          <mxGeometry x="335" y="1238" width="180" height="42" as="geometry" />
        </mxCell>
        <mxCell id="iYd_dcTMY8yAVxDXRBEc-33" value="Teams" style="rounded=1;whiteSpace=wrap;html=1;fillColor=#333333;strokeColor=none;fontSize=16;fontStyle=0;gradientColor=#808080;fontColor=#FFFFFF;" vertex="1" parent="1">
          <mxGeometry x="335" y="1300" width="180" height="40" as="geometry" />
        </mxCell>
        <mxCell id="iYd_dcTMY8yAVxDXRBEc-34" value="Coaches" style="rounded=1;whiteSpace=wrap;html=1;fillColor=#333333;strokeColor=none;fontSize=16;fontStyle=0;gradientColor=#808080;fontColor=#FFFFFF;" vertex="1" parent="1">
          <mxGeometry x="335" y="1170" width="180" height="40" as="geometry" />
        </mxCell>
        <mxCell id="iYd_dcTMY8yAVxDXRBEc-35" value="Medals" style="rounded=1;whiteSpace=wrap;html=1;fillColor=#333333;strokeColor=none;fontSize=16;fontStyle=0;gradientColor=#808080;fontColor=#FFFFFF;" vertex="1" parent="1">
          <mxGeometry x="335" y="1434" width="180" height="40" as="geometry" />
        </mxCell>
        <mxCell id="iYd_dcTMY8yAVxDXRBEc-36" value="Gender" style="rounded=1;whiteSpace=wrap;html=1;fillColor=#333333;strokeColor=none;fontSize=16;fontStyle=0;gradientColor=#808080;fontColor=#FFFFFF;" vertex="1" parent="1">
          <mxGeometry x="335" y="1494" width="180" height="40" as="geometry" />
        </mxCell>
        <mxCell id="iYd_dcTMY8yAVxDXRBEc-37" style="edgeStyle=orthogonalEdgeStyle;rounded=0;orthogonalLoop=1;jettySize=auto;html=1;shadow=1;" edge="1" parent="1">
          <mxGeometry relative="1" as="geometry">
            <mxPoint x="-110" y="1250" as="sourcePoint" />
            <mxPoint x="20" y="1193" as="targetPoint" />
            <Array as="points">
              <mxPoint x="-110" y="1193" />
            </Array>
          </mxGeometry>
        </mxCell>
        <mxCell id="iYd_dcTMY8yAVxDXRBEc-38" style="edgeStyle=orthogonalEdgeStyle;rounded=0;orthogonalLoop=1;jettySize=auto;html=1;" edge="1" parent="1">
          <mxGeometry relative="1" as="geometry">
            <mxPoint x="-112" y="1257.5" as="sourcePoint" />
            <mxPoint x="20" y="1258" as="targetPoint" />
          </mxGeometry>
        </mxCell>
      </root>
    </mxGraphModel>
  </diagram>
</mxfile>
